<svg width="66" height="66" viewBox="0 0 66 66" fill="none" xmlns="http://www.w3.org/2000/svg">
<rect x="1.32129" y="1.32129" width="63.3571" height="63.3571" rx="31.6786" stroke="#EEEEEE" stroke-width="1.5"/>
<rect x="5.57129" y="5.57129" width="54.8571" height="54.8571" rx="27.4286" fill="#00FFE0"/>
<path d="M43.6663 31.6669C43.3403 29.3206 42.2518 27.1465 40.5685 25.4796C38.8853 23.8127 36.7007 22.7455 34.3512 22.4423C32.0018 22.1392 29.6178 22.6169 27.5666 23.8019C25.5154 24.9869 23.9107 26.8135 22.9997 29.0003M22.333 23.6669V29.0003H27.6663M22.333 34.3336C22.6591 36.68 23.7476 38.854 25.4308 40.5209C27.1141 42.1878 29.2987 43.255 31.6481 43.5582C33.9976 43.8613 36.3815 43.3836 38.4327 42.1986C40.484 41.0136 42.0887 39.187 42.9997 37.0002M43.6663 42.3336V37.0002H38.333M31.6663 33.0002C31.6663 33.3539 31.8068 33.693 32.0569 33.9431C32.3069 34.1931 32.6461 34.3336 32.9997 34.3336C33.3533 34.3336 33.6924 34.1931 33.9425 33.9431C34.1925 33.693 34.333 33.3539 34.333 33.0002C34.333 32.6466 34.1925 32.3075 33.9425 32.0574C33.6924 31.8074 33.3533 31.6669 32.9997 31.6669C32.6461 31.6669 32.3069 31.8074 32.0569 32.0574C31.8068 32.3075 31.6663 32.6466 31.6663 33.0002Z" stroke="#00332D" stroke-width="2" stroke-linecap="round" stroke-linejoin="round"/>
</svg>
