<svg width="1063" height="150" viewBox="0 0 1063 150" fill="none" xmlns="http://www.w3.org/2000/svg">
<g opacity="0.24" clip-path="url(#clip0_628_18874)">
<path d="M814.553 -180.798C811.891 -186.027 805.673 -187.77 799.113 -189.788C791.194 -191.407 783.206 -192.601 775.204 -193.356C735.141 -197.103 694.324 -189.87 656.635 -171.41C653.081 -169.667 648.648 -167.938 645.107 -169.681C589.192 -201.962 551.078 -149.766 507.625 -126.311C489.892 -117.623 487.189 -155.942 481.356 -172.495C475.797 -174.485 468.674 -174.498 461.551 -174.498C454.4 -174.498 447.263 -174.512 440.154 -174.526C429.805 -176.832 420.61 -177.971 407.818 -183.502C354.03 -212.489 289.647 -213.134 235.791 -188.539C227.872 -185.712 220.172 -182.376 209.728 -185.794C190.828 -191.984 169.527 -201.591 150.011 -190.296C145.578 -186.823 142.929 -179.851 145.591 -174.622C166.041 -125.83 181.166 -70.9583 153.209 -22.3037C151.932 -10.0337 160.812 -4.79084 165.534 7.19094C167.016 13.2985 166.316 20.6413 162.322 16.9218C153.154 13.2024 145.578 9.46923 139.594 4.45967C134.419 -0.810665 130.823 -7.34368 138.262 -18.9137C139.168 -20.2725 140.047 -21.6587 140.911 -23.0586C139.731 -21.3155 138.496 -19.5999 137.192 -17.9118C131.825 -10.569 130.59 -3.89875 133.541 1.37158C138.866 8.98886 145.701 16.1532 152.522 19.7766C159.303 23.7431 165.698 28.1899 170.42 24.1548C175.69 19.1041 173.988 6.09295 170.639 -9.01808C168.965 -16.5667 166.439 -22.2626 168.649 -31.4857C170.557 -41.395 173.206 -50.9612 174.084 -61.4195C171.422 -61.4195 172.314 -64.0409 172.314 -64.9056C177.611 -104.09 159.838 -138.073 148.268 -173.785C144.713 -183.365 152.687 -191.201 162.445 -192.931C180.192 -195.525 197.046 -186.796 213.021 -181.553C216.576 -179.81 221.009 -178.931 224.55 -179.796C231.646 -183.488 238.934 -186.755 246.373 -189.582C298.39 -209.387 357.366 -207.575 405.279 -177.655C412.32 -173.881 418.414 -171.177 427.993 -164.04C435.185 -164.04 442.405 -164.026 449.638 -164.013C456.802 -163.985 463.98 -163.958 471.021 -163.807C479.228 -150.741 478.35 -135.067 484.567 -121.123C489.906 -108.921 504.111 -89.7475 513.856 -103.678C543.982 -148.929 589.192 -197.638 644.242 -158.385C646.904 -156.642 650.459 -156.642 653.108 -158.385C694.118 -184.998 738.614 -192.574 782.163 -186.919C790.878 -185.794 799.538 -184.133 808.144 -181.978C819.014 -164.287 827.908 -142.506 846.546 -136.385C878.497 -125.02 904.204 -159.827 932.573 -173.73C963.619 -188.498 999.097 -189.321 1030.98 -177.984L1032.09 -184.819C976.026 -207.644 921.044 -179.837 872.266 -151.166C845.654 -136.398 824.353 -157.315 814.567 -180.839L814.553 -180.798Z" fill="white"/>
<path d="M129.547 -2.93792C129.327 -1.52426 129.382 -0.110605 129.656 1.2207C129.464 -0.110605 129.423 -1.48309 129.547 -2.93792Z" fill="white"/>
<path d="M183.898 30.921C183.898 37.0149 177.694 39.6226 171.943 36.8639C163.722 32.8288 155.721 26.9683 148.625 22.8097C141.529 18.6648 135.531 12.5573 131.537 5.59877C130.659 4.30863 130.014 2.81262 129.671 1.22054C130.316 5.70856 132.594 9.52406 135.243 13.0513C140.308 18.7883 146.415 23.6881 153.731 27.4075C162.61 32.6367 170.598 43.9734 182.127 40.501C187.452 38.7717 187.439 31.7995 187.439 26.5703C184.804 6.01051 175.333 -12.8748 176.322 -33.6817C175.443 -31.321 174.524 -28.9604 173.563 -26.6271C174.098 -6.534 181.221 10.8965 183.898 30.921Z" fill="white"/>
<path d="M913.989 -102.306C873.213 -58.8121 820.811 -125.062 794.46 -159.594C786.911 -161.556 779.225 -162.956 771.347 -163.642C763.469 -164.329 755.412 -164.315 747.136 -163.464C707.211 -159.154 685.059 -126.97 653.135 -107.851C640.714 -100.028 629.172 -120.944 617.629 -131.403C599.869 -147.969 570.594 -141.902 559.971 -119.284C548.675 -95.7868 562.839 -72.2624 567.259 -50.9478C568.741 -43.8383 569.125 -36.9897 567.135 -30.4566C562.702 -30.4566 557.377 -29.5919 552.944 -30.4703C517.451 -38.3484 484.622 -42.7403 449.129 -40.1738C447.359 -40.1738 445.574 -41.9169 446.467 -43.6599C454.441 -51.4831 465.97 -57.5631 469.964 -68.5567C465.626 -75.2544 461.852 -82.4188 458.435 -89.8165C455.017 -97.2142 451.957 -104.831 449.074 -112.449C448.182 -115.935 444.627 -120.286 439.096 -122.097C433.812 -126.16 428.611 -130.442 423.409 -134.779C397.455 -156.464 371.68 -179.591 335.446 -183.996C317.7 -185.753 301.725 -187.524 283.992 -184.051C268.469 -181.018 250.943 -177.12 235.543 -170.724C227.844 -167.526 220.446 -164.795 211.978 -169.475C205.939 -171.96 200.6 -176.324 192.626 -174.581C206.831 -165.852 215.711 -147.557 233.457 -144.922C239.675 -144.043 249.433 -137.071 241.459 -131.856C233.924 -126.352 226.856 -121.04 221.215 -119.846C193.573 -112.764 199.804 -77.0524 189.085 -57.1514C186.505 -49.9596 184.775 -43.7011 183.17 -37.0033C174.139 -10.8987 192.777 12.6394 192.804 37.8931C192.804 50.9591 174.18 48.3239 166.837 41.6262C160.606 37.4264 154.649 33.4874 149.324 30.0013C142.366 25.4995 136.546 20.339 131.674 14.6706C127.804 10.1689 124.537 5.3515 121.765 0.287037C121.765 4.70643 123.604 8.52191 125.813 12.1864C130.356 18.3489 135.997 24.031 143.107 29.1229C148.432 32.609 154.196 36.0951 160.414 40.9811C167.962 45.7025 175.964 53.5393 186.601 51.8237C194.589 50.0944 199.9 43.1359 196.345 36.1637C186.573 11.7747 182.113 -15.2358 186.861 -41.1208C190.43 -46.8029 192.818 -53.8574 194.561 -61.0355C199.433 -82.0894 201.026 -107.096 223.424 -111.049C230.561 -116.072 238.947 -120.368 248.555 -123.991C257.421 -126.599 271.612 -137.895 260.07 -147.488C249.419 -155.339 236.106 -151.002 225.456 -157.109C286.902 -204.062 371.406 -180.442 423.615 -129.619C429.42 -123.964 434.814 -117.994 439.741 -111.721C444.627 -108.071 447.29 -102.855 448.182 -97.6259C449.966 -91.5321 452.231 -85.6167 454.949 -79.9621C457.666 -74.3074 460.823 -68.8861 459.19 -63.3687C449.994 -47.1185 428.707 -45.403 419.84 -29.7292C473.944 -45.3343 529.859 -35.6995 581.711 -16.0593C587.407 -16.1142 590.193 -17.9945 589.301 -21.7002C580.407 -54.8045 537.778 -109.717 583.001 -132.295C609.614 -145.32 624.725 -111.351 646.026 -97.3926C651.351 -93.9065 659.339 -94.7574 661.988 -99.1082C687.241 -141.312 726.041 -157.809 766.639 -156.78C774.751 -156.574 782.944 -155.668 791.111 -154.131C820.784 -122.427 850.979 -85.8226 897.121 -81.4169C922.855 -79.6464 934.37 -106.629 951.211 -122.276C976.039 -144.016 1011.53 -143.096 1038.76 -128.15L1036.35 -138.842C992.001 -163.148 946.778 -136.206 913.975 -102.292L913.989 -102.306Z" fill="white"/>
<path d="M125.635 -11.0908C123.714 -8.56542 121.724 -6.10868 119.665 -3.72056C120.324 -2.3618 121.024 -1.03047 121.737 0.287109C121.737 -2.9245 122.698 -6.4518 125.224 -10.4595C125.361 -10.6653 125.498 -10.8849 125.635 -11.0908Z" fill="white"/>
<path d="M954.835 -97.3787C950.552 -93.3574 944.253 -88.7733 937.239 -83.9147C924.654 -74.4308 908.692 -58.7708 893.855 -72.578C887.02 -73.9093 880.103 -75.8582 873.199 -78.315C845.612 -88.1145 821.237 -107.768 802.558 -130.675C795.242 -139.665 787.337 -142.479 779.376 -144.276C738.943 -148.888 698.812 -135.232 670.003 -90.4203C651.392 -61.7079 628.293 -108.757 606.979 -121.85C595.436 -127.958 580.353 -125.364 574.163 -113.176C567.959 -100.988 567.973 -86.193 573.312 -73.9917C585.76 -47.2694 609.23 -30.2094 633.495 -14.3161C639.562 -10.3359 645.532 -6.4106 650.981 -2.36178C655.825 1.82429 659.106 6.32603 661.562 11.0199C655.976 9.74352 652.01 5.94174 646.959 2.70269C641.909 -0.536374 635.472 -2.95193 629.268 -2.51273C619.949 -1.75787 610.369 -1.30497 600.693 -1.25007C596.438 -1.67554 592.005 -0.810874 588.45 -3.43231C527.196 -41.8207 450.008 -48.0105 391.485 -6.28705C396.783 -35.8915 431.383 -41.9442 449.171 -62.3667C447.277 -70.8761 443.351 -79.8384 440.497 -89.8712C436.297 -97.1866 431.328 -103.39 425.989 -109.621C388.576 -153.294 332.441 -198.695 280.465 -161.433C276.924 -158.825 307.091 -142.245 292.914 -132.679C274.742 -120.08 251.67 -112.49 232.167 -101.73C225.799 -98.4218 219.815 -94.7573 215.711 -93.4809C208.19 -89.6242 204.443 -82.9128 201.726 -75.5014C199.008 -68.0899 197.32 -59.9923 193.958 -53.3632C183.884 -21.3569 196.332 10.0043 204.334 42.2439C205.226 46.5947 206.118 51.8239 202.563 55.31C195.467 61.3901 184.817 59.647 176.898 55.4609C167.071 51.2886 157.299 43.5066 149.311 38.7029C141.735 34.3796 135.709 29.6171 130.7 24.3605C125.608 19.0352 121.504 13.1748 117.963 6.83389C116.453 2.96349 116.44 -0.52263 118.224 -3.13035C138.605 -36.1935 163.406 -83.1872 131.441 -115.441C110.181 -71.9329 64.0658 -44.9911 12.5976 -55.5043C12.5976 -55.5043 11.7193 -52.8966 10.8271 -51.1535C58.7405 -38.911 111.073 -60.6099 134.996 -103.253C155.418 -74.4857 140.376 -36.1935 119.747 -11.928C111.06 -1.64807 114.285 5.50258 118.265 12.1454C122.245 19.3235 127.557 25.5271 133.664 30.8112C139.758 36.0952 146.648 40.4597 153.744 43.9458C163.502 50.918 173.274 57.904 184.817 61.4038C196.359 64.9036 212.321 57.9589 208.753 44.0144C200.751 16.1393 188.303 -10.8711 192.942 -39.9678C194.685 -48.6556 197.787 -57.5081 201.685 -66.0861C205.253 -74.9524 208.396 -80.36 211.8 -83.5167C215.204 -86.6734 220.131 -90.7359 225.717 -94.4828C248.047 -109.484 278.406 -114.672 304.429 -122.193C323.053 -127.395 300.86 -151.811 307.064 -158.756C327.445 -181.375 369.169 -155.201 392.254 -136.879C408.23 -122.921 417.123 -106.369 430.436 -89.8164C433.991 -86.3303 436.612 -82.6657 440.14 -74.4995C443.036 -67.3763 441.814 -59.7316 431.164 -50.3987C410.069 -34.1073 374.59 -16.7317 379.051 14.6296C429.572 -45.3891 521.844 -43.5363 584.003 -2.86959C595.519 1.8243 603.506 0.314576 611.494 -0.33049C619.482 -0.975559 627.47 -0.742256 635.458 1.87918C657.651 17.5804 684.263 18.4863 709.997 13.2846C692.251 8.04167 672.734 8.87888 658.461 -3.14406C652.449 -6.05373 646.589 -9.34771 640.893 -12.9848C623.805 -23.8823 608.145 -37.7855 593.721 -53.0338C579.515 -66.9783 569.743 -87.0302 577.704 -106.176C582.137 -116.621 595.436 -122.701 605.195 -115.729C630.05 -99.1492 658.474 -50.3575 685.059 -90.3791C700.129 -112.998 716.97 -132.144 743.582 -139.075C753.629 -141.682 763.195 -142.506 772.349 -141.971C781.421 -140.639 790.095 -137.936 798.056 -129.344C817.957 -104.42 843.128 -81.3893 872.691 -70.3271C880.075 -67.5684 887.034 -65.0568 890.149 -60.5276C895.365 -50.9477 907.786 -51.8123 914.882 -58.7708C933.506 -76.1602 954.78 -87.4557 976.067 -99.6297C981.612 -102.896 987.431 -105.12 993.346 -106.382C1011.09 -110.17 1029.7 -105.339 1044.24 -93.879L1042.7 -107.014C1020.41 -121.342 990.245 -125.734 967.187 -108.345C962.754 -105.078 958.705 -101.277 954.807 -97.3787L954.835 -97.3787Z" fill="white"/>
<path d="M917.654 -42.8773C912.191 -39.6245 906.111 -36.9207 897.903 -35.7129C881.146 -33.462 878.579 -43.989 878.016 -50.6593C875.409 -57.3707 867.901 -60.9117 860.668 -65.1664C837.336 -76.6266 816.474 -94.4277 801.061 -115.235C793.362 -125.377 785.799 -128.342 778.443 -129.742C741.495 -133.351 710.216 -104.008 685.1 -76.4619C657.623 -46.8849 631.861 -88.7182 608.776 -106.162C602.559 -110.527 593.693 -108.798 589.26 -102.704C582.164 -92.2592 583.948 -80.9362 590.165 -72.2209C605.565 -47.8182 626.083 -25.7349 651.2 -12.1611C657.486 -8.77105 663.84 -5.88886 670.387 -3.65171C683.385 0.163786 696.698 1.92058 709.832 -0.206767C716.283 -1.29103 721.347 -3.29486 725.671 -5.10655C734.839 -9.34752 742.813 -14.563 751.679 -19.7784C751.24 -13.6846 749.689 -7.31623 747.191 -1.40082C744.007 4.28125 739.094 9.19474 731.792 12.4887C721.265 16.8532 709.462 20.0236 697.466 21.1628C690.096 21.4785 682.602 21.2451 675.095 20.7099C663.84 19.0492 652.984 15.0553 643.473 7.95952C640.81 6.21647 638.147 5.33808 634.593 6.20274C631.848 6.47724 629.089 6.72427 626.317 6.9576C632.026 7.23209 637.049 8.59085 640.879 10.6908C648.661 14.918 657.033 17.9649 665.693 19.8864C658.46 19.1727 651.213 18.2806 644.049 17.4296C647.069 18.5139 650.143 19.4746 653.245 20.3256C640.838 19.1178 628.389 18.8296 615.776 21.4784C609.037 21.6706 600.226 20.5315 586.611 11.5142C536.968 -28.7544 450.007 -48.0103 403.027 9.40062C379.091 38.9776 392.432 78.1758 419.95 99.1061C403.11 121.725 373.821 106.888 359.616 88.5792C333.854 54.5828 344.477 14.5474 358.641 -20.2724C360.412 -24.6232 360.412 -30.717 355.965 -33.3385C352.41 -35.0815 347.977 -34.2169 346.207 -35.9599C316.904 -57.7687 284.939 -90.9004 246.811 -68.2956C198.925 -39.6107 234.459 17.0316 238.933 58.8237C240.718 76.2405 221.215 85.793 205.239 84.9009C191.926 84.0088 176.842 80.5089 166.713 70.4212C161.347 65.3156 155.802 62.0491 150.038 59.0708C142.352 55.5435 134.199 52.2358 126.362 48.5987C130.562 50.7947 134.748 52.977 138.838 55.2278C146.25 59.3041 153.359 63.5862 159.741 68.4037C175.964 83.1167 197.265 90.1164 219.444 87.5224C238.069 84.9284 249.598 66.6606 244.259 49.2438C234.473 17.0179 216.699 -19.5862 237.973 -51.7709C253.921 -75.2678 286.751 -70.8759 307.173 -54.2963C314.722 -48.1888 320.5 -40.3519 326.594 -33.1601C332.701 -25.9683 339.138 -19.4352 345.685 -14.3021C347.14 -10.7062 346.248 -6.35548 346.248 -2.86937C340.058 26.7351 335.652 55.4612 350.75 83.35C364.968 109.496 403.137 129.562 428.844 106.957C435.047 100.863 433.263 92.1613 427.06 87.7968C417.301 81.6893 406.651 78.1895 400.433 68.6095C386.215 43.3421 396.838 13.7514 419.003 -3.63797C473.093 -44.4968 545.862 -20.9038 591.675 16.3729C600.692 22.2471 607.774 23.9764 614.307 24.2234C619.331 23.9489 624.381 23.7705 629.446 23.647C627.03 24.4568 624.642 25.4586 622.254 26.5429C618.356 28.3134 614.486 30.2486 610.547 31.5662C613.251 32.1838 615.831 32.4034 618.315 32.3211C631.793 30.4682 645.216 27.5723 658.872 26.2821C658.186 26.2821 657.499 26.2547 656.813 26.2547C652.943 26.79 649.059 24.9646 645.408 23.5097C655.592 23.5646 665.789 23.8666 675.946 24.3332C678.691 24.5665 681.436 24.7038 684.181 24.745C692.566 25.1979 700.911 25.7332 709.173 26.3233C720.702 26.3233 732.231 21.1216 743.582 15.7003C751.652 11.9122 756.51 6.25762 759.722 -0.371465C766.145 -13.6159 769.919 -28.8093 773.035 -42.2048C773.817 -49.9181 770.99 -56.3276 764.992 -61.5568C757.004 -67.6643 745.476 -67.678 736.596 -61.5842C727.729 -54.6257 721.526 -45.9242 711.767 -39.8441C706.442 -37.2364 693.143 -32.0346 694.913 -38.1285C701.103 -61.6254 719.714 -85.987 747.219 -85.9595C757.54 -85.5889 766.639 -81.1421 773.817 -74.4718C766.777 -81.8283 758.665 -87.7849 747.219 -88.5809C721.485 -89.4868 706.428 -68.5976 691.359 -51.2082C683.384 -43.3851 670.963 -43.3988 661.205 -39.048C674.532 -19.0098 706.47 -23.3194 722.418 -38.101C730.392 -46.8025 735.717 -58.1118 748.125 -60.7058C754.781 -61.5705 760.765 -59.3882 765.432 -55.4629C770.098 -51.5376 773.159 -45.7458 770.853 -37.8265C768.314 -28.027 764.663 -15.606 759.406 -4.06344C756.785 1.70098 753.23 6.98503 747.932 11.0613C736.651 20.2707 722.459 24.6077 708.268 25.4587C702.036 25.6234 695.833 25.294 689.657 24.7313C711.822 24.1136 733.741 17.512 751.871 4.29497C755.179 -0.536168 758.02 -5.90256 760.353 -11.5984C762.687 -17.2942 764.526 -23.2919 765.843 -29.3995C768.369 -37.5932 769.453 -45.4301 764.114 -50.22C759.681 -53.7062 754.356 -54.5845 751.693 -51.9768C725.973 -32.8444 701.158 -5.01047 666.544 -19.8607C645.243 -28.5897 625.713 -43.4262 619.482 -66.0722C619.482 -68.6799 622.144 -69.5583 623.915 -68.6799C642.553 -60.8156 663.854 -43.3851 679.816 -57.2883C681.943 -59.1 684.098 -60.843 686.294 -62.5449C661.095 -53.5826 635.567 -72.1935 610.588 -81.7597C605.263 -83.5027 607.939 -71.3151 609.71 -66.0859C616.819 -50.3985 629.254 -38.1971 643.459 -26.8604C662.097 -13.7806 684.29 -7.65936 706.456 -13.7257C727.743 -18.9274 734.825 -41.5597 754.342 -46.7614C763.208 -48.4907 766.859 -42.4243 764.169 -32.2268C762.604 -25.4055 760.436 -17.7334 757.526 -10.2945C754.987 -4.99675 752.036 0.177539 747.96 4.52831C750.554 -0.618497 752.434 -6.34175 753.56 -12.1062C754.973 -19.2705 755.234 -26.5036 754.342 -32.817C741.029 -30.223 735.717 -15.4276 723.31 -10.2122C714.732 -6.01239 706.305 -3.67917 697.631 -2.88313C690.398 -2.22434 683.879 -2.62232 677.73 -3.92619C671.307 -5.23004 665.103 -7.41229 658.954 -10.3082C634.346 -21.8645 613.086 -44.6889 597.289 -66.9643C591.071 -77.4226 587.503 -93.0964 599.924 -100.055C607.019 -103.527 613.237 -98.2981 618.562 -93.9336C634.552 -78.2461 654.082 -52.965 677.14 -66.0036C708.913 -83.3792 732.67 -120.724 768.465 -122.577C775.629 -122.948 783.26 -121.905 791.55 -118.981C808.541 -95.4434 830.515 -74.9796 855.315 -61.2273C862.974 -56.0943 869.562 -52.1003 867.983 -44.5791C867.023 -37.9089 867.915 -28.329 875.903 -27.4506C892.77 -23.9507 910.503 -25.6663 924.694 -35.658C932.01 -42.1773 938.872 -49.575 946.86 -56.0943C968.134 -73.4836 1000.07 -83.0224 1023.38 -64.7821L1038.25 -72.3582C1017.82 -90.8456 985.88 -88.2653 961.93 -76.1051C945.295 -66.978 932.669 -53.4454 917.667 -42.8498L917.654 -42.8773Z" fill="white"/>
<path d="M614.377 7.89062C618.385 7.62985 622.365 7.31421 626.318 6.97108C622.584 6.79266 618.563 7.06714 614.377 7.89062Z" fill="white"/>
<path d="M773.214 -91.9025C781.394 -91.1888 789.725 -88.6909 798.934 -81.9795C807.745 -75.7621 816.173 -68.8174 824.572 -61.7903C830.611 -53.6377 837.721 -46.6655 841.275 -37.9502C846.601 -26.6273 839.518 -14.4396 846.628 -3.9813C857.292 11.7062 878.579 16.9491 894.541 6.53193C908.733 -3.03428 920.262 -12.6005 937.088 -16.0043C941.467 -19.8884 946.147 -23.3333 951.115 -26.3116C966.006 -35.2602 983.382 -40.1188 1002.17 -40.709L1004.02 -47.9419C982.531 -55.0514 964.456 -50.3437 948.892 -39.7345C943.704 -36.1935 938.79 -31.9937 934.124 -27.3684C920.248 -18.6806 905.164 -12.6142 890.987 -4.79106C875.903 2.15371 853.724 -4.83223 853.71 -22.249C852.818 -37.0581 851.912 -50.9888 838.379 -59.4708C833.823 -63.2451 829.184 -67.239 824.38 -71.3565C814.773 -79.5914 805.728 -88.2106 797.315 -96.5964C788.956 -101.908 780.598 -103.431 772.267 -103.775C747.356 -104.008 722.569 -93.5907 707.28 -77.2856C706.648 -76.5994 706.017 -75.9406 705.386 -75.2955C726.728 -87.4145 750.17 -93.9064 773.228 -91.8751L773.214 -91.9025Z" fill="white"/>
<path d="M620.648 14.369C619.907 14.5475 619.166 14.7259 618.411 14.8906C626.77 15.4121 635.361 16.3866 644.049 17.4297C640.536 16.167 637.077 14.7533 633.701 13.1612C629.267 10.5398 624.834 12.2829 620.648 14.3553L620.648 14.369Z" fill="white"/>
<path d="M601.915 15.0004C595.437 11.1437 589.48 8.4536 582.357 3.85579C553.768 -16.7452 516.011 -30.2916 479.956 -29.6328C517.068 -30.7994 555.484 -17.5138 584.896 2.92251C598.072 10.8417 606.211 9.66139 614.185 7.93206C614.253 7.93206 614.308 7.90461 614.377 7.89089C612.236 8.02814 610.095 8.1654 607.94 8.28892C603.26 8.3301 598.058 7.41054 591.196 3.92444C522.764 -48.7789 407.42 -44.5654 370.226 41.5991C357.778 10.2378 384.376 -21.0822 408.23 -39.6382C426.004 -51.9219 430.135 -58.5647 431.109 -63.9586C428.186 -68.0211 425.359 -71.7131 422.696 -76.256C408.257 -106.396 384.266 -146.486 346.125 -141.312C334.596 -139.582 341.706 -120.422 334.61 -110.843C331.947 -108.235 327.514 -106.492 323.973 -106.506C288.481 -106.547 243.752 -105.998 218.553 -79.6186C213.337 -74.1835 208.891 -67.7192 204.567 -59.2235C187.398 -23.937 206.063 11.775 214.957 46.6224C216.741 52.7162 215.849 61.4315 209.645 64.0254C192.791 72.7133 174.153 63.1059 160.703 52.6476C152.262 47.6243 143.464 44.0284 135.518 39.2384C127.571 34.4484 120.516 28.4644 115.713 20.01C112.693 13.875 108.617 5.74986 113.119 -4.65356C126.171 -26.6407 140.349 -50.1377 138.551 -76.256C102.194 -44.9497 54.3079 -28.4661 5.48864 -43.3301C1.93391 -44.2085 -1.6071 -42.4655 -4.26972 -40.7224C42.7653 -22.386 92.4354 -36.2481 135.01 -57.9745C132.361 -44.9222 127.049 -33.5992 119.748 -22.4958C111.582 -10.6376 102.564 0.273631 107.601 8.70067C114.23 29.2056 131.867 41.7089 151.274 49.683C157.889 53.2378 164.971 58.0689 172.218 63.4628C184.79 70.1056 202.536 76.2131 215.835 66.6469C221.161 61.4315 220.255 53.5946 218.484 47.487C206.036 7.41054 185.586 -40.5028 220.461 -75.4188C225.621 -81.5263 231.523 -86.1516 238.166 -89.775C264.709 -104.255 302.961 -102.47 333.718 -96.0472C339.043 -94.3041 345.247 -96.8982 347.909 -102.127C352.342 -113.437 358.532 -130.853 373.616 -123.867C392.254 -114.054 403.92 -96.8844 413.583 -78.8363C416.808 -72.8248 419.8 -66.7035 422.765 -60.7195C422.463 -55.8746 418.922 -51.5239 415.381 -48.9161C383.457 -23.7036 345.343 19.7903 371.996 59.0159C385.296 39.0051 386.16 14.6298 405.663 -1.89491C412.951 -8.18088 420.747 -13.2865 428.927 -17.3353C418.139 -11.7219 408.175 -4.06342 399.46 5.92826C378.186 30.2898 382.647 59.8943 387.107 87.7694C380.904 88.6341 375.565 84.2696 371.132 79.9188C352.48 57.2591 352.452 27.6547 363.967 2.41471C371.942 -16.7314 387.011 -33.2561 404.716 -46.7065C404.113 -57.6589 400.585 -67.8152 396.166 -74.9521C391.746 -82.0753 386.421 -86.1653 378.104 -82.9126C372.12 -80.3048 365.999 -78.9049 359.109 -78.7128C336.408 -77.7383 315.999 -86.4673 292.928 -90.8455C268.086 -95.2237 243.244 -89.1573 225.511 -71.768C191.817 -37.8539 214.037 8.3301 226.486 46.6635C230.933 62.3373 219.418 78.0111 201.671 77.9836C183.033 77.9562 169.72 64.8901 155.556 56.2298C147.801 52.5927 140.088 49.0929 133.006 45.3185C118.842 37.7424 107.011 27.6272 102.894 12.2142C101.604 7.01251 98.79 0.808925 104.541 -6.32799C111.101 -13.5472 116.413 -21.3841 120.846 -30.0857C85.3534 -26.6407 49.8747 -14.4943 13.9843 -24.8565C-4.90106 -29.0014 -11.3106 -29.0014 -11.3106 -29.0014L-11.3106 -18.4745C-11.3106 -18.4745 -4.88733 -18.4745 6.92974 -18.447C41.0222 -12.7512 75.6225 -14.4531 109.646 -17.4588C101.782 -8.55143 92.4903 -0.0145614 96.4294 7.27332C102.098 30.5506 122.136 43.7402 144.137 53.224C149.641 55.5984 155.364 58.2473 161.32 62.104C175.937 73.6191 192.805 81.4697 211.43 79.7541C226.513 78.0248 235.366 63.2432 230.919 49.2987C220.241 12.7083 197.142 -31.7189 226.39 -65.6467C260.07 -103.925 308.89 -80.346 347.937 -63.7527C356.817 -60.2528 367.454 -65.4683 378.104 -64.5899C381.659 -63.7115 385.2 -62.8469 386.984 -60.2254C389.207 -56.7393 391.033 -53.0336 392.79 -49.3142C390.58 -42.7125 385.557 -35.26 375.839 -23.9782C358.642 -3.66541 348.898 21.5883 350.696 47.7066C351.601 70.3526 370.253 95.62 394.203 96.5259C398.636 96.5259 400.407 91.3104 397.744 87.8243C385.31 66.043 381.741 39.9109 395.027 17.2924C441.101 -54.063 540.496 -29.5504 596.15 15.3572C604.701 17.6218 611.865 16.4552 618.398 14.9592C617.273 14.8905 616.147 14.8219 615.036 14.767C610.685 14.8357 606.293 14.9455 601.887 15.0553L601.915 15.0004Z" fill="white"/>
<path d="M767.683 8.11052C779.212 -3.19874 801.377 -17.102 810.257 -3.15756C847.561 49.9987 923.857 47.4871 964.208 5.39302C969.753 -0.975301 975.737 -6.7809 982.613 -11.4199C989.49 -16.0726 997.258 -19.5724 1006.36 -21.3292L1003.34 -28.1779C985.756 -23.8409 971.428 -14.2747 958.609 -2.53997C954.011 0.822612 949.578 4.43228 944.006 6.20278C930.939 10.0457 919.411 17.0042 906.99 23.0843C879.499 36.1092 841.33 25.6234 828.003 -1.38704C820.002 -17.9392 806.689 -31.8836 794.652 -46.2123C791.399 -51.9905 786.307 -59.6489 780.337 -66.9643C782.945 -63.2037 784.907 -59.0313 786.074 -54.5845C785.388 -31.9111 771.196 -13.6433 767.669 8.12426L767.683 8.11052Z" fill="white"/>
<path d="M85.7513 1.41241C75.6499 0.259529 66.2895 0.259564 57.6429 0.245839C14.3685 0.190944 -11.2832 0.163456 -11.2832 0.163456L-11.2832 10.6904C-11.2832 10.6904 -4.85999 10.6904 5.44736 11.1571C30.3854 12.4335 64.9857 1.16536 75.6361 14.2314C84.969 24.9093 97.3625 32.9246 110.483 40.1851C96.69 31.4972 86.3964 19.9958 85.7376 1.41241L85.7513 1.41241Z" fill="white"/>
<path d="M126.363 48.626C121.051 45.8536 115.713 43.0811 110.497 40.1852C115.438 43.287 120.818 46.0457 126.363 48.626Z" fill="white"/>
<path d="M592.142 22.0824C594.791 24.1274 597.289 25.8018 599.677 27.1743C590.427 18.7747 580.037 10.9241 568.906 4.07541C577.196 9.40064 585.005 15.4258 592.142 22.0961L592.142 22.0824Z" fill="white"/>
<path d="M709.132 28.9309C709.983 28.8348 710.834 28.725 711.685 28.5877C702.558 28.725 693.308 27.6132 684.291 26.2819C675.685 25.28 667.217 25.4859 658.845 26.2819C675.836 26.6113 692.086 30.5778 709.132 28.9309Z" fill="white"/>
<path d="M568.92 4.07519C557.665 -3.14407 545.491 -9.032 532.81 -13.369C545.368 -8.90848 557.528 -2.93819 568.92 4.07519Z" fill="white"/>
<path d="M676.316 31.5114C669.221 31.5114 660.354 32.3623 655.029 37.5777C652.366 39.3208 655.921 41.9285 657.692 42.8069C663.909 46.293 671.883 41.956 676.33 45.4421C687.873 52.428 701.172 53.3064 713.593 51.5771C741.097 48.1322 768.602 47.2949 796.477 47.7204C803.614 46.7322 810.298 45.895 816.502 45.6068C862.631 43.054 923.885 77.9562 967.214 52.9084C969.973 47.1302 972.978 40.9678 976.423 35.1347C986.717 17.3611 1000.99 2.59315 1022.18 -1.70272L1015.4 -9.11412C998.891 -5.60056 987.993 3.99307 978.88 15.865C974.323 21.7942 970.151 28.039 965.869 33.9269C926.561 71.8624 860.888 49.1478 816.515 32.5544C811.19 30.8114 806.757 29.933 801.432 30.7977C793.444 32.7466 784.468 35.2445 773.282 36.2876C744.666 36.8366 713.62 52.4692 686.102 40.2404C710.052 38.5248 732.231 28.9723 752.352 17.9101C758.693 13.9436 762.659 8.42621 765.473 2.23631C771.114 -10.1298 775.327 -23.3056 779.156 -34.2306C782.162 -42.9458 784.509 -51.5101 780.954 -58.0431C774.737 -68.5014 764.073 -81.5812 750.773 -78.1089C756.771 -75.9266 762.096 -72.6464 766.557 -68.6113C771.018 -64.5624 774.627 -59.745 777.194 -54.461C776.425 -38.8421 772.733 -22.9762 766.118 -8.52395C762.81 -1.29097 758.281 5.32439 752.558 11.1986C740.027 18.9669 726.645 26.3783 711.713 28.6154C720.551 28.4782 729.267 27.1743 737.556 23.7568C718.932 35.9308 696.752 31.5388 676.344 31.5251L676.316 31.5114Z" fill="white"/>
<path d="M605.675 32.8286C607.309 32.5541 608.928 32.1012 610.534 31.5659C607.158 30.7973 603.589 29.3974 599.691 27.1603C601.75 29.0268 603.74 30.9071 605.689 32.8149L605.675 32.8286Z" fill="white"/>
<path d="M406.418 15.7964C409.973 10.1555 414.53 5.14597 419.882 0.712851C421.063 -0.234156 422.243 -1.12631 423.437 -2.01841C416.382 3.97933 410.316 11.4731 405.691 20.7236C399.487 33.7759 397.73 49.4497 408.381 60.7864C412.814 65.1509 418.153 68.637 424.357 67.7723C440.318 65.1783 456.294 59.0983 471.378 65.2195C482.028 70.4624 490.908 79.1777 495.355 89.636C500.694 104.445 506.033 128.834 484.746 131.414C467 134.008 450.145 135.724 432.399 138.318C371.187 148.694 328.557 92.0378 324.961 37.1797C324.069 28.4644 320.514 18.0198 312.417 11.5829C305.417 7.987 297.649 5.58516 289.441 4.04799C256.612 -1.22235 271.723 41.4756 270.858 61.5001C269.98 76.3092 259.343 90.2262 245.151 91.9418C231.564 93.177 217.166 94.2064 203.373 92.6966C223.494 97.0611 244.822 96.1416 262.898 86.7401C283.293 76.3092 283.279 52.7985 282.373 31.9094C282.373 21.4648 295.673 18.8708 304.223 22.0138C308.986 24.9783 313.432 28.4644 314.311 32.8152C329.449 106.847 386.284 161.774 467 143.588C480.299 140.116 474.109 156.654 473.231 164.491C502.492 145.373 519.319 104.459 496.22 73.0838C482.275 54.4181 463.362 55.7219 444.326 59.5649C449.432 57.6434 454.579 55.3926 459.821 53.8828C460.851 53.6358 461.866 53.4299 462.868 53.2515C448.979 53.1829 434.266 55.6259 420.788 58.1924C403.042 61.6511 403.028 33.7897 410.11 19.859C421.104 1.65984 437.354 -9.5259 455.649 -14.7962C436.997 -9.88275 420.912 1.02851 411.002 17.2513C403.028 31.1682 400.379 51.1927 415.477 59.9217C419.388 62.1863 423.245 63.1471 427.06 63.2843C425.262 63.6549 423.464 63.998 421.694 64.2862C413.706 66.0155 408.381 59.0433 404.826 52.0711C399.487 39.0051 403.028 25.0744 411.002 12.8868C441.142 -28.8779 497.029 -26.2016 539.631 -7.85147C576.908 7.86345 600.007 40.9815 609.861 78.2993C618.22 86.2871 627.758 85.4362 637.407 82.7187C647.056 80.0012 656.814 75.4445 665.68 75.019C679.872 74.1681 691.414 87.2479 706.498 87.2616C743.761 86.4381 778.347 71.6702 815.693 71.5878C821.196 69.6801 826.7 67.8135 832.478 66.5097C874.174 56.9846 911.451 83.1441 954.052 91.0359C958.486 91.9143 962.919 91.9143 967.324 90.1301C973.446 88.1811 979.004 83.3363 984.206 77.3523C994.623 65.3979 1003.26 51.028 1013.45 37.9895C1020.55 28.4233 1031.19 24.0725 1043.55 24.2921L1035.83 13.7377C1012.38 14.9317 1001.54 32.376 990.862 50.1908C987.294 56.1337 983.753 62.1177 979.773 67.5527C970.907 81.4697 954.052 84.9421 938.077 81.4422C904.053 72.6995 868.808 56.6827 838.489 59.6335C832.423 60.2237 826.563 61.5687 820.949 63.8882C817.394 64.7529 813.853 66.4959 810.299 66.4822C777.469 66.441 744.639 65.5352 710.931 68.9801C696.739 71.5741 680.764 63.7235 669.221 62.8314C656.361 61.9393 641.936 63.2294 628.39 61.802C621.623 61.0883 614.994 59.0296 608.214 51.9888C591.113 28.7801 573.353 6.12042 546.727 -6.97307C521.528 -18.8862 489.481 -24.8153 461.386 -19.4078C467.082 -20.6979 472.86 -21.4802 478.666 -21.8233C474.727 -21.7135 470.788 -21.439 466.862 -20.9998C442.611 -17.6235 418.372 -5.23002 406.404 15.7964L406.418 15.7964Z" fill="white"/>
<path d="M141.775 71.5189C136.244 71.1895 130.699 71.313 125.333 71.9443C133.019 71.2032 140.746 71.8757 148.473 73.056C153.551 73.8384 158.808 75.2932 164.435 77.6401C163.68 77.0225 162.939 76.3775 162.198 75.7187C155.514 73.4129 148.583 71.9306 141.775 71.5189Z" fill="white"/>
<path d="M125.333 71.9443C122.081 72.26 118.828 72.8365 115.589 73.7148C118.746 72.9188 121.998 72.3286 125.333 71.9443Z" fill="white"/>
<path d="M81.0439 107.423C70.3797 86.5067 93.4374 73.4819 99.641 56.0651C86.3279 54.3083 73.0149 47.3223 58.8234 50.7947C27.7778 58.5904 2.05749 78.5875 -29.8802 77.6817C-29.8802 82.9108 -31.6507 89.0046 -28.9881 91.6124C-25.4333 95.0985 -17.4592 91.6261 -11.2419 90.7614C22.4663 84.7088 62.3507 38.6071 80.1243 67.3606C86.3417 76.9405 68.6229 104.788 84.5986 122.219C77.4892 103.924 89.8964 84.7774 106.737 76.968C109.674 75.5818 112.625 74.525 115.576 73.7152C98.7215 77.9699 84.9829 88.3321 81.0302 107.423L81.0439 107.423Z" fill="white"/>
<path d="M556.513 8.71449C587.586 34.874 595.601 74.9368 603.877 112.776C608.09 117.278 613.388 119.584 620.484 118.513C655.976 113.325 682.589 115.109 710.107 137.783C710.999 138.647 714.54 136.918 715.432 135.175C736.692 99.4905 783.713 92.5869 821.882 89.1557C828.703 86.3696 835.47 83.3638 842.264 80.4679C879.513 65.7137 920.358 96.2377 957.744 112.529C964.744 114.89 972.567 113.709 980.692 110.237C1004.64 99.8199 1017.93 75.4446 1040.99 64.1628C1047.19 61.5551 1053.41 61.5688 1059.91 61.5413L1055.3 46.8146C1026.78 46.7323 1012.6 73.7015 993.978 91.1046C986.594 98.0631 978.729 102.867 970.687 105.626C964.703 105.873 957.607 106.723 951.403 104.116C913.235 88.4008 868.862 58.7415 831.613 79.5895C825.547 82.7737 819.316 85.3677 812.398 86.0951C776.618 87.3715 743.802 100.383 710.986 114.286C709.215 115.151 705.66 115.151 703.89 114.286C672.817 91.6125 642.663 107.245 610.726 108.082C606.293 108.082 604.467 101.481 602.683 92.4222C596.054 29.0135 540.729 -24.5545 474.273 -18.0901C503.027 -20.3135 533.99 -10.1709 556.526 8.74192L556.513 8.71449Z" fill="white"/>
<path d="M491.786 58.6313C483.483 53.663 473.642 51.3846 462.896 53.2649C473.258 53.3198 483.167 54.7884 491.786 58.6313Z" fill="white"/>
<path d="M517.561 114.039C511.385 163.668 451.092 203.648 403.165 183.569C402.273 183.569 403.165 180.961 405.828 180.083C418.248 175.746 435.995 175.759 441.306 161.842C386.297 153.072 343.681 122.534 316.136 72.8643C311.689 64.1491 302.836 79.8091 293.654 81.2365C286.737 84.4206 279.051 87.2892 270.926 90.2263C249.049 98.1455 224.536 97.9671 201.808 92.5183C202.329 92.5869 202.851 92.6418 203.373 92.6967C198.088 91.5438 192.887 90.0341 187.85 88.2224C205.816 94.0143 226.293 92.5732 244.273 86.7127C257.572 82.3757 260.221 66.7019 258.437 53.6359C253.098 28.3822 242.42 1.37171 255.719 -22.9899C260.152 -31.6914 272.573 -34.2854 280.561 -28.1916C290.1 -21.8644 299.419 -16.0314 308.724 -10.6787C318.03 -5.32602 325.922 0.973709 330.876 10.6634C325.88 65.0412 352.561 137.344 419.099 130.454C442.171 128.738 474.987 119.199 474.973 95.6887C475.838 71.3134 443.008 72.1369 421.721 70.3664C404.867 69.4743 396.865 51.1791 399.514 35.5053C400.681 28.2586 403.069 21.6707 406.431 15.7828C402.314 22.3158 399.569 29.7135 398.622 38.1268C397.744 52.0575 403.083 66.8666 416.396 72.9741C426.154 77.3386 437.697 76.4877 447.455 79.9738C458.105 84.3383 467.877 96.5397 458.119 106.984C436.846 128.724 403.137 133.912 375.619 117.333C332.125 91.1596 335.639 40.6522 334.719 -1.13992C334.719 -5.49069 329.394 -10.7199 324.439 -12.9158C319.402 -15.7981 314.434 -18.8862 309.52 -22.1801C299.693 -28.7818 290.1 -36.2481 280.561 -44.7437C267.248 -56.0804 247.731 -42.1634 243.312 -26.5034C235.351 1.35798 248.678 27.4901 253.139 55.3652C254.031 64.9451 253.152 75.3897 245.178 82.3482C229.216 93.6437 208.808 93.63 191.061 88.3734C176.856 84.8736 166.206 73.5369 151.918 69.8037C146.305 68.3901 140.678 67.1274 134.954 66.345C129.231 65.549 123.398 65.2196 117.414 65.6451C119.184 63.0374 125.402 60.4297 123.618 58.6866C113.845 43.8775 92.5583 47.3224 80.1236 35.1211C75.6905 30.7566 72.1357 25.5274 65.9184 26.3921C37.5217 27.2293 10.0309 36.7818 -19.2442 35.876C-21.0147 35.876 -22.7852 44.5775 -24.5557 49.8067C7.39573 55.9416 36.6433 31.5938 69.4868 36.8641C83.6783 38.6209 96.113 48.2146 111.197 52.5928C113.859 53.4712 118.292 56.0789 117.414 58.7003C113.873 64.7942 104.115 64.7804 100.574 72.6173C117.208 67.4156 135.339 67.1136 152.728 70.984C158.671 72.7408 164.655 75.3897 171.009 79.9464C173.549 81.7031 176.184 83.2403 178.915 84.5853C176.225 83.3638 173.59 82.0737 171.051 80.6875C168.8 79.5346 166.617 78.519 164.49 77.6406C165.355 78.3543 166.233 79.0268 167.112 79.6719C165.41 78.9719 163.722 78.3406 162.075 77.819C165.368 79.2327 168.717 81.0169 172.203 83.3364C197.992 100.19 227.24 101.522 256.364 96.4024C263.652 95.126 270.912 93.4379 278.132 91.4889C295.782 87.646 314.42 92.8889 326.855 105.104C349.94 128.642 379.229 142.614 400.543 165.274C404.977 170.503 381.919 173.083 381.04 178.312C378.392 197.472 411.221 197.5 427.183 195.784C454.688 193.204 481.3 182.786 499.911 161.033C517.644 140.157 525.604 113.174 516.71 87.0421C511.701 72.3016 502.821 63.5315 491.841 58.618C509.779 69.3508 520.54 92.6418 517.616 114.025L517.561 114.039Z" fill="white"/>
<path d="M108.616 200.628C106.818 168.403 89.0447 141.392 72.1769 113.503C65.0674 101.302 69.5005 88.2496 66.8242 76.0482C65.9321 73.4405 59.7284 76.0482 56.1737 76.8991C27.7908 89.0593 6.51729 117.772 -26.3125 117.73C-25.4204 122.081 -24.5283 129.053 -22.7578 129.932C2.08417 134.31 19.8166 113.435 37.5491 99.5314C41.9822 96.059 47.3075 89.9651 50.8485 93.4513C89.9231 133.555 121.902 190.198 96.36 244.946C90.2662 255.734 75.9512 265.945 70.4475 272.505C76.1159 267.29 89.127 259.673 95.3993 250.765C120.145 207.601 106.791 158.823 93.4503 112.652C92.572 109.852 92.1877 107.066 92.2288 104.349C91.872 106.655 91.6798 109.125 91.6798 111.774C91.7073 141.378 109.467 170.132 108.603 200.615L108.616 200.628Z" fill="white"/>
<path d="M103.196 83.9402C96.5116 88.5243 92.353 96.073 92.2295 104.363C96.196 78.4091 121.587 73.6466 147.897 75.1975C152.44 75.4583 157.134 76.2818 162.007 77.819C159.193 76.6112 156.421 75.6642 153.676 74.9368C136.286 71.5604 118.485 72.8506 103.196 83.9265L103.196 83.9402Z" fill="white"/>
<path d="M88.2352 288.879C94.4937 293.134 102.921 295.975 108.699 298.157C110.469 299.036 112.254 301.643 111.362 301.643C95.3996 305.98 76.7613 304.21 66.9892 291.144C60.7718 282.429 64.3128 272.849 76.8711 264.943C100.656 244.164 107.738 208.466 97.9524 179.726C89.0587 155.337 68.6224 117.868 41.1316 126.542C24.2775 131.744 9.20764 152.633 -12.9717 151.727C-11.2012 155.213 -9.41695 161.307 -6.75434 161.307C12.7624 162.199 27.8322 144.81 43.7942 137.851C60.6483 131.771 79.2866 150.08 89.0724 166.646C106.846 199.75 101.548 243.285 72.0536 267.372C62.5423 273.713 59.0013 283.293 62.5561 289.401C73.2203 308.574 106.942 312.966 122.904 302.535C127.337 299.063 120.228 287.726 115.795 284.24C111.348 279.011 98.9406 287.699 90.0606 282.47C85.6275 279.848 85.6138 272.89 87.9195 268.1C99.3798 253.963 105.776 238.715 108.973 222.794C103.785 240.774 94.5349 257.422 80.8375 271.147C77.9141 278.97 81.9904 284.638 88.2489 288.893L88.2352 288.879Z" fill="white"/>
<path d="M598.085 104.143C598.73 108.974 599.567 113.051 600.597 116.509C599.746 112.309 598.922 108.096 598.058 103.869C598.058 103.965 598.058 104.047 598.071 104.143L598.085 104.143Z" fill="white"/>
<path d="M510.494 154.952C483.909 190.623 439.564 215.822 395.205 212.281C373.026 210.511 335.749 190.445 342.817 164.326C345.466 156.49 353.454 147.802 349.899 141.694C340.127 123.399 318.826 114.656 299.639 106.229C291.363 103.8 283.156 101.577 275.168 101.686C235.544 104.761 195.66 104.404 161.732 81.3736C153.387 78.5737 144.96 76.7758 137.027 76.6248C121.161 76.3366 106.75 81.3324 98.7762 96.9925C89.1276 115.26 101.48 133.555 108.713 152.249C106.805 136.589 104.472 120.942 103.223 105.708C101.205 82.8422 126.651 77.1601 149.091 80.1933C156.654 81.4011 163.873 83.5696 170.022 87.3713C200.614 108.974 237.219 104.61 272.697 103.69C281.563 103.457 290.594 105.625 299.941 109.921C315.299 120.764 350.791 133.006 340.155 152.153C336.614 158.246 327.747 163.462 326.855 170.42C325.977 186.094 341.966 198.309 352.878 209.509C358.121 213.64 363.761 217.071 369.787 219.61C375.812 222.149 382.235 223.81 388.988 224.4C395.754 224.99 403.028 224.524 411.318 222.849C466.451 206.407 533.551 166.742 525.893 102.263C527.471 120.256 522.187 139.073 510.494 154.98L510.494 154.952Z" fill="white"/>
<path d="M513.417 68.4036C516.78 73.0701 519.47 78.0659 521.501 83.2539C519.442 77.7502 516.697 72.7956 513.417 68.4036Z" fill="white"/>
<path d="M471.322 -16.6354C448.251 -14.0551 425.193 -2.75957 412.786 18.1296C407.475 28.5742 403.934 39.8835 410.151 50.3418C413.706 54.7063 419.031 59.057 424.356 56.4493C439.7 50.5476 456.404 43.9872 472.585 44.5773C462.456 42.9715 451.765 43.5068 441.293 46.3067C450.914 42.2853 460.439 37.5091 472.256 39.1011C505.086 43.4931 527.292 72.2603 530.861 102.743C537.119 158.48 488.341 190.637 448.635 218.389C446.673 228.023 442.459 236.519 435.254 242.489C428.048 248.473 417.851 251.932 408.531 251.493C371.859 247.966 342.268 225.1 324.398 194.974C319.938 187.439 317.069 179.424 318.332 172.204C318.853 162.556 329.49 157.341 331.261 148.639C333.909 130.357 307.283 122.479 292.817 114.272C284.253 110.745 275.963 110.209 267.619 109.866C234.24 108.508 199.941 110.292 171.572 91.379C165.149 87.838 159.316 85.8205 153.703 84.846C142.462 82.8833 131.153 83.0892 120.063 87.4263C107.642 92.6417 101.452 106.559 105.899 118.76C127.227 168.416 114.848 219.788 98.0346 267.661C114.875 253.744 121.957 232.855 134.364 216.33C137.041 228.517 127.282 239.827 126.98 251.905C125.182 260.208 126.308 266.659 127.749 273.027C129.19 279.395 130.878 285.585 132.951 291.597C133.527 299.049 142.407 307.765 137.974 311.237C122.012 326.019 90.9526 309.439 68.7596 303.318C60.3325 300.696 56.3249 294.163 55.6935 286.862C55.0484 279.56 59.3992 271.435 69.8026 265.135C88.2351 253.716 94.4387 231.084 93.5329 211.06C91.7349 188.414 78.4081 150.094 49.133 160.497C33.1711 165.699 19.8717 175.265 3.0039 177.859C5.66652 179.602 3.89601 187.439 9.22125 185.71C26.0753 182.251 41.1452 169.199 54.4583 168.348C88.1665 166.646 97.0876 213.681 86.4508 242.407C80.2472 257.202 65.1774 265.026 56.2151 277.241C50.9996 288.509 58.1091 300.71 68.7596 304.21C91.831 312.953 114.024 320.803 138.866 322.574C144.191 322.574 150.395 318.237 146.62 312.335C142.695 306.653 140.156 301.41 137.795 295.44C134.625 287.699 132.566 279.903 131.317 272.066C130.508 263.859 130.508 255.61 133.637 245.207C140.568 223.302 146.758 200.67 146.744 177.159C140.54 181.51 136.999 188.468 135.229 194.562C128.147 211.965 121.065 229.382 110.428 244.164C121.93 203.25 122.78 159.715 108.548 117.895C102.317 98.7355 124.496 85.6969 141.35 84.846C150.669 84.846 159.316 87.4812 168.017 90.2536C195.22 109.921 227.542 110.704 260.001 112.666C268.113 113.16 276.238 113.723 284.294 114.67C298.417 120.736 317.934 125.115 323.273 140.788C326.828 150.368 317.069 158.191 313.624 167.305C311.195 174.442 313.322 182.526 317.289 190.225C341.088 236.437 387.697 272.574 442.253 260.236C450.68 258.506 455.333 251.767 457.104 243.601C458.874 235.435 457.749 225.855 459.066 218.457C488.341 192.38 524.698 169.775 532.659 127.118C538.835 92.2985 521.953 53.0867 487.339 39.9795C465.146 31.2505 444.751 43.4107 422.572 47.734C410.151 49.4634 411.908 32.0466 414.57 23.345C425.193 -2.7596 454.468 -13.1767 481.081 -13.1493C497.839 -12.9297 513.032 -8.92205 526.496 -2.08709C512.566 -8.81225 497.18 -12.2023 481.438 -11.9278C496.425 -11.6121 511.536 -7.53585 525.453 -0.906761C557.803 15.5493 577.196 44.0283 587.105 76.0346C581.231 56.0924 571.884 37.2895 557.089 20.9157C583.578 48.7634 598.016 89.6085 597.701 127.695C599.855 133.034 602.216 137.81 604.742 142.394C620.951 165.96 641.812 181.222 673.75 168.197C708.364 188.263 695.092 237.013 689.945 269.555C692.992 277.241 696.945 284.35 701.927 290.842C706.909 297.334 712.893 303.222 720.003 308.451C721.773 309.329 725.328 309.329 726.014 305.569C723.887 297.979 722.034 290.101 720.565 282.099C719.467 276.211 719.014 270.172 719.179 263.969C734.139 228.353 735.882 189.168 748.276 153.484C756.236 129.987 789.066 123.056 814.347 122.809C820.029 122.685 825.739 121.519 831.393 118.691C837.048 115.095 842.73 111.349 848.494 107.437C883.081 84.8322 917.709 120.585 941.535 142.531C947.272 149.847 952.35 158.068 961.216 158.946C986.058 162.46 1008.24 148.557 1033.96 152.935C1036.62 153.813 1039.28 154.678 1042.04 156.421L1051.54 139.224C1023.29 129.41 996.695 154.637 970.069 148.502C964.003 146.896 958.211 145.043 952.652 142.916C924.791 120.585 886.608 82.2245 850.251 102.208C843.746 105.543 837.364 109.015 831.064 112.57C824.723 115.246 818.231 116.166 811.739 116.248C786.376 116.935 755.33 125.595 746.478 146.484C729.651 184.776 731.463 230.068 712.234 270.364C712.193 278.16 712.207 285.942 711.864 293.354C707.486 288.687 703.299 283.952 699.717 278.805C696.135 273.658 693.171 268.114 694.721 261.663C699.511 228.27 709.215 160.374 670.182 165.548C644.008 169.007 624.039 157.217 608.763 140.102C603.877 133.789 599.512 126.871 597.44 114.08C593.803 57.4786 559.148 -5.25753 495.259 -13.163C465.091 -16.6766 430.491 -8.88088 414.543 18.9531C409.231 29.3977 405.69 51.1653 421.666 51.179C424.644 51.179 427.485 50.7673 430.272 50.081C428.268 50.9457 426.291 51.8789 424.329 52.922C415.462 58.1375 407.461 44.193 408.339 34.6131C410.988 10.2378 432.262 -5.4085 455.319 -12.3533C489.027 -21.892 522.749 -11.4062 550.268 8.65943C582.123 33.0073 590.852 68.3899 598.03 103.814C594.503 39.0188 542.156 -23.5665 471.281 -16.6903L471.322 -16.6354Z" fill="white"/>
<path d="M955.589 123.07C923.02 104.953 882.175 70.0643 847.589 88.3184C840.342 91.9417 833.178 95.5514 826 98.8179C789.931 102.18 748.235 107.355 729.624 140.418C718.987 157.821 721.677 182.21 717.258 203.099C715.487 200.478 711.932 198.735 711.04 196.127C706.566 154.321 678.156 126.419 630.256 135.944C622.049 137.673 615.337 135.93 609.696 131.908C605.949 128.683 602.847 124.03 600.61 116.509C601.571 121.272 602.546 125.993 603.589 130.687C607.075 135.34 611.082 139.347 615.886 142.353C620.69 145.372 626.29 147.417 632.932 148.145C654.233 150.78 682.616 137.755 694.159 160.415C703.931 179.588 703.945 201.356 706.635 222.259C707.527 228.353 709.311 233.582 711.081 239.676C729.692 210.099 727.002 175.251 737.625 143.918C746.478 114.327 786.403 112.625 813.126 105.035C820.084 104.129 826.699 101.192 833.493 98.3649C840.177 94.7279 847.163 91.7907 854.698 90.0614C887.514 83.1304 918.587 105.818 946.847 124.154C953.627 128.573 961.066 131.14 969.273 131.428C995.336 129.644 1021.4 122.04 1046.34 107.712C1049.88 105.104 1056.1 106.847 1061.31 107.917L1062.99 90.5281C1028.58 85.0519 1009.09 122.466 976.259 125.911C968.724 126.775 961.656 126.226 955.589 123.07Z" fill="white"/>
<path d="M525.907 102.249C525.344 95.7572 523.889 89.3614 521.501 83.2676C522.379 85.6008 523.134 88.0164 523.752 90.5417C524.74 94.5357 525.44 98.4335 525.893 102.249L525.907 102.249Z" fill="white"/>
<path d="M513.416 68.4033C510.109 63.8192 506.17 59.5371 501.544 55.6804C492.39 48.022 482.59 44.9339 472.585 44.577C488.835 47.1573 503.589 55.2549 513.416 68.4033Z" fill="white"/>
<path d="M608.09 157.684C618.754 171.628 624.972 186.437 636.514 198.639C641.839 203.868 654.26 200.409 664.019 197.801C674.669 195.207 681.765 202.18 684.441 211.76C689.78 230.055 687.131 249.201 682.149 266.302C682.685 272.711 684.51 279.286 685.759 284.158C698.701 304.073 720.908 329.354 746.629 329.395C751.062 326.787 753.724 320.693 751.048 315.464C744.94 303.853 740.068 291.473 736.664 278.792C734.962 272.451 734.153 265.849 734.07 259.055C744.762 227.502 746.505 192.668 759.791 163.078C767.765 145.674 793.485 139.608 816.049 138.071C821.594 137.796 827.33 136.177 833.164 133.473C839.106 130.056 845.09 126.597 851.143 123.125C890.163 101.398 926.575 139.759 929.265 176.336C933.712 182.443 940.807 187.672 949.756 187.055C959.02 187.055 967.694 187.082 975.696 187.082C1015.72 187.137 1039.27 187.165 1039.27 187.165L1039.27 176.638C1039.27 176.638 1015.72 176.61 975.696 176.555C967.694 176.555 959.02 176.542 949.756 176.528C944.362 175.471 939.037 174.606 935.482 171.107C932.792 137.138 895.502 101.398 861.794 113.545C855.439 116.001 849.222 118.705 843.128 121.587C837.034 124.47 831.036 127.517 825.121 130.687C799.689 127.407 765.102 136.067 756.25 160.442C743.856 197.005 733.247 236.176 730.776 274.125C732.341 281.248 734.276 288.344 736.5 295.385C738.723 302.426 741.235 309.398 743.952 316.302C745.736 322.395 737.584 326.389 729.02 322.368C711.603 315.176 699.25 302.096 691.606 286.23C689.053 280.946 687.035 275.347 685.512 269.555C690.659 244.836 695.078 218.718 683.522 195.194C679.967 189.964 672.871 187.343 666.654 188.208C656.004 190.802 641.812 195.139 634.716 187.302C624.656 176.253 615.57 164.834 607.363 153.004C603.259 147.088 599.54 140.747 596.108 133.953C595.765 127.668 595.285 121.368 594.599 115.096C595.175 121.642 595.436 128.203 595.422 134.708C598.949 142.792 602.971 150.464 608.076 157.656L608.09 157.684Z" fill="white"/>
<path d="M479.914 219.143C481.547 225.443 485.569 231.564 489.247 237.672C493.584 243.779 497.55 249.859 500.817 255.953C505.264 265.533 476.881 272.464 461.797 274.193C421.872 276.76 383.717 265.396 351.752 240.101C334.445 226.582 322.449 210.455 313.569 192.709C310.605 186.794 307.997 180.7 305.636 174.455C306.487 166.769 311.332 159.989 314.214 153.607C322.394 139.937 303.756 130.33 293.256 123.701C286.778 119.913 280.533 118.321 274.179 117.36C248.747 113.531 220.94 117.168 195.508 108.425C185.75 104.06 176.87 97.953 166.755 93.4375C160.661 91.3239 154.443 89.8141 148.528 89.3887C136.711 88.5377 125.841 91.3651 120.09 102.235C105.912 128.34 127.227 157.107 128.147 184.968C135.229 171.916 135.215 154.499 149.406 146.676C155.61 143.204 167.153 147.568 165.382 154.527C159.192 187.604 149.461 217.208 139.058 247.54C137.987 256.392 137.864 264.984 138.921 273.37C141.034 290.142 146.867 306.886 157.532 323.452C161.978 330.424 150.161 330.644 139.744 327.775C112.281 320.776 82.992 319.87 58.1363 302.425C48.8171 296.318 48.1446 288.481 50.4641 280.315C73.1787 259.769 102.44 227.584 74.908 197.074C58.0402 177.9 34.0904 197.897 13.6953 200.477C14.5874 203.085 14.5874 205.707 15.4795 208.314C33.2257 204.856 50.9582 190.939 67.826 201.411C90.0191 216.234 83.8292 249.324 63.2557 263.172C54.2384 270.845 48.3642 277.584 48.3642 284.103C49.2838 325.909 112.267 317.276 143.409 330.52C163.118 338.247 164.408 329.532 161.073 319.293C157.737 309.055 149.969 297.732 145.961 289.455C142.709 282.195 140.719 274.907 139.826 267.66C138.921 260.414 139.085 253.194 140.115 246.071C153.894 218.059 165.41 187.604 178.695 159.742C183.128 152.784 168.923 136.218 154.718 134.461C144.067 133.583 136.093 143.149 129.89 150.107C121.01 137.906 114.779 121.354 120.982 106.558C125.415 96.9922 133.609 93.0807 142.805 92.2709C152 91.4611 162.17 93.7531 170.543 96.5805C200.229 119.501 238.453 116.097 274.494 121.422C281.7 122.479 288.96 124.401 296.509 128.326C311.757 133.802 310.879 148.598 306.13 160.538C304.113 166.783 303.097 174.098 305.06 181.318C308.23 188.18 311.785 194.864 315.724 201.287C335.419 233.403 364.763 259.151 404.139 270.625C430.765 278.489 458.27 279.395 484.882 272.464C504.399 266.398 533.674 256.845 535.431 234.213C524.78 235.064 513.252 239.415 503.493 232.429C496.096 227.625 490.015 222.039 486.694 215.822C486.625 213.255 487.504 210.647 488.396 208.904C498.388 198.35 508.009 186.766 516.051 174.441C513.526 177.653 510.809 180.727 507.899 183.664C497.262 194.095 483.071 204.54 479.955 219.129L479.914 219.143Z" fill="white"/>
<path d="M516.011 174.469C536.378 148.612 543.872 114.67 533.153 83.954C544.092 115.823 533.949 147.006 516.011 174.469Z" fill="white"/>
<path d="M587.105 76.0485C590.839 88.7165 593.172 101.851 594.613 115.123C593.446 101.892 591.017 88.7028 587.105 76.0485Z" fill="white"/>
<path d="M522.118 62.3783C513.842 50.6436 502.052 41.5852 488.89 36.658C509.203 43.2734 526.304 55.9414 535.28 78.354C551.283 117.566 536.227 160.209 512.511 192.366C503.658 206.324 514.528 211.128 526.51 209.838C536.268 208.548 542.472 202.454 547.921 195.125C553.356 187.796 558.036 179.245 566.641 178.051C569.771 177.132 565.282 190.239 563.773 195.084C563.114 201.397 561.728 207.436 559.696 213.187C553.603 230.453 541.635 245.124 525.673 256.859C507.94 269.033 490.194 275.978 468.907 279.436C398.649 289.799 334.019 251.136 303.687 191.104C299.899 183.596 297.744 175.787 298.966 167.689C298.472 157.327 313.267 147.184 302.246 139.196C294.217 133.308 286.188 129.067 278.392 126.885C255.019 120.366 229.889 121.313 205.267 115.411C199.049 114.533 191.953 112.79 186.738 109.317C177.158 103.649 165.396 98.7354 155.487 98.4472C145.577 98.1453 136.931 101.398 134.282 112.721C160.016 113.627 180.438 131.057 193.642 152.084C199.749 156.339 203.071 161.568 198.198 166.783C192.653 171.889 187.493 176.994 183.183 181.249C167.18 197.225 159.206 218.992 150.683 239.442C148.885 246.14 147.773 252.906 147.458 259.714C146.511 280.109 152.728 300.737 169.047 320.021C174.372 326.128 173.494 334.83 166.398 340.91C134.886 334.857 105.954 322.052 73.6592 316.645C104.842 325.95 135.874 334.816 166.027 343.984C171.188 341.075 174.825 336.12 176.156 328.722C177.927 315.656 164.6 306.063 158.383 294.74C149.503 279.052 147.224 263.09 149.736 247.801C150.999 240.156 153.661 232.415 157.93 224.125C162.198 215.849 166.755 208.493 171.243 202.866C175.731 197.239 181.042 192.27 187.356 186.876C193.779 181.345 200.724 176.349 207.97 171.999C219.499 165.04 209.727 152.839 201.739 145.002C195.975 139.773 189.058 135.285 181.495 127.365C173.919 119.446 165.739 113.009 158.094 105.817C166.096 105.817 174.386 107.657 184.048 112.419C187.52 115.37 191.075 115.384 194.616 117.127C218.868 125.869 263.226 121.079 285.721 134.049C291.349 137.288 295.905 142.339 298.074 148.104C300.256 153.868 300.284 161.074 297.813 170.708C297.937 179.012 300.791 187.206 305.005 195.139C321.859 226.898 345.534 254.018 381.04 267.99C428.968 288.069 487.518 288.152 530.97 255.102C546.26 242.709 557.569 227.378 562.62 210.195C564.308 204.471 565.296 198.542 565.928 193.231C571.486 184.57 573.366 174.798 572.09 165.342C577.896 144.576 580.545 122.809 578.76 101.906C578.788 128.903 569.935 155.007 552.807 176.226C548.044 182.347 544.448 186.986 540.674 190.692C535.349 195.043 529.145 196.552 522.818 196.442C519.373 195.029 521.157 192.407 522.036 189.8C545.958 144.549 557.446 82.7323 513.046 45.2361C493.419 29.0408 467.562 25.1017 443.447 30.4132C453.947 30.3995 464.474 31.1544 474.548 33.0484C465.819 31.8818 456.856 32.5268 448.169 35.3816C477.018 34.8189 505.195 39.8285 522.09 62.3921L522.118 62.3783Z" fill="white"/>
<path d="M533.167 83.9535C532.027 80.6459 530.669 77.3245 529.063 74.003C527.045 69.6797 524.712 65.8368 522.118 62.3919C522.983 63.6271 523.834 64.876 524.616 66.1662C528.212 71.9169 531.039 77.8735 533.153 83.9673L533.167 83.9535Z" fill="white"/>
<path d="M419.031 44.2617C421.693 47.7478 427.911 46.0185 432.344 43.4108C437.422 39.8149 442.761 37.166 448.21 35.3818C438.726 35.5602 429.173 36.3425 419.923 37.3033C411.057 38.1679 422.558 11.1849 434.087 2.48336C438.904 -1.0302 443.955 -3.81633 449.143 -5.99858C428.267 2.19514 405.086 22.2059 419.031 44.2617Z" fill="white"/>
<path d="M570.965 44.3439C571.267 44.838 571.555 45.3321 571.857 45.8262C571.569 45.3321 571.267 44.838 570.965 44.3439Z" fill="white"/>
<path d="M576.29 53.9378C576.4 54.1574 576.51 54.3907 576.619 54.624C576.51 54.3907 576.4 54.1711 576.29 53.9378Z" fill="white"/>
<path d="M572.296 46.5947C573.641 48.9142 574.931 51.2886 576.153 53.6904C574.945 51.2886 573.655 48.9279 572.296 46.5947Z" fill="white"/>
<path d="M571.857 45.8125C572.008 46.0732 572.159 46.334 572.31 46.5811C572.159 46.3203 572.008 46.0595 571.857 45.8125Z" fill="white"/>
<path d="M569.51 41.9975C569.51 41.9975 569.592 42.1343 569.633 42.2026C569.592 42.1343 569.551 42.0659 569.51 41.9975Z" fill="white"/>
<path d="M424.315 31.1957C426.607 33.1995 430.505 33.9543 434.101 32.9524C437.176 31.9505 440.319 31.0996 443.475 30.4133C437.052 30.4133 430.629 30.7016 424.343 31.2094C424.343 31.2094 424.329 31.2094 424.315 31.2094L424.315 31.1957Z" fill="white"/>
<path d="M590.949 115.137C590.66 112.68 590.345 110.223 589.988 107.767C590.743 114.794 591.113 121.876 591.168 128.93C591.1 131.689 590.962 134.544 590.688 137.632C591.058 138.304 591.443 138.99 591.813 139.663C593.282 148.296 595.835 154.458 598.291 160.209C607.885 182.608 612.277 205.24 601.736 227.406C618.096 205.487 611.838 181.345 599.334 157.025C597.331 151.933 595.052 147.047 592.87 141.694C592.87 141.653 592.87 141.598 592.87 141.557C606.375 165.919 619.194 190.692 624.121 218.663C625.906 231.729 649.856 221.312 664.047 223.069C680.901 226.569 677.374 247.472 675.192 260.469C672.296 266.618 672.996 272.437 674.492 277.776C684.511 304.773 714.719 319.884 736.94 337.822C744.667 342.008 751.557 342.036 758.213 339.867C769.742 336.395 772.391 323.342 767.066 313.749C757.294 296.908 750.568 278.613 747.796 260.29C747.549 253.771 749.388 246.387 752.037 238.578C760.766 199.668 772.254 154.403 821.814 154.225C827.084 152.784 832.739 150.3 838.641 147.761C850.43 142.696 862.755 139.416 876.068 139.718C896.477 139.745 907.141 162.391 912.768 179.739C915.939 188.839 920.482 197.101 924.915 205.076C928.47 212.048 936.457 217.277 944.006 216.261C953.847 216.261 963.056 216.289 971.579 216.289C1014.15 216.344 1039.35 216.371 1039.35 216.371L1039.35 205.844C1039.35 205.844 1005.45 205.803 949.839 205.734C940.575 205.734 931.338 203.607 922.746 191.268C914.251 171.093 913.345 143.231 889.381 135.367C873.996 130.989 859.708 133.006 845.956 138.208C839.08 140.802 832.396 143.835 825.918 146.923C805.111 154.417 775.822 153.511 766.091 175.265C755.468 200.505 751.049 226.623 743.98 252.618C742.471 260.153 743.006 266.851 744.694 273.178C748.07 285.819 753.464 298.102 760.876 309.357C765.323 316.329 767.107 325.909 761.781 332.867C756.456 338.083 749.813 339.812 742.649 338.193C719.399 322.835 689.012 307.531 678.829 280.974C677.044 275.69 676.07 269.939 677.36 263.763C681.862 248.322 688.052 223.069 669.413 215.204C657.871 210.84 643.679 218.663 630.38 215.163C628.609 214.285 627.717 211.677 626.825 209.069C621.033 185.545 609.71 164.423 597.564 143.629C595.766 139.526 594.531 134.351 593.529 128.299C593.68 103.333 588.011 77.2837 576.688 54.5828C585.321 72.0271 590.084 91.2006 590.784 110.278C590.866 111.925 590.949 113.517 591.017 115.096L590.949 115.137Z" fill="white"/>
<path d="M422.558 25.1019C430.518 -1.01647 461.564 -10.5552 487.298 -8.78473C507.707 -7.01423 527.237 -0.0282868 544.105 13.0515C554.165 21.4373 562.647 31.2506 569.51 41.9834C552.052 14.4651 525.137 -5.98484 489.069 -9.6631C470.43 -11.4336 450.914 -8.8396 435.844 3.33432C427.87 10.2791 414.598 31.1271 424.301 31.182C422.64 29.7409 421.803 27.641 422.544 25.0881L422.558 25.1019Z" fill="white"/>
<path d="M538.437 74.0034C532.878 60.759 523.971 48.8046 509.519 39.1424C509.244 38.9502 508.97 38.7855 508.695 38.5933C520.759 47.8713 530.696 60.1551 538.437 74.0034Z" fill="white"/>
<path d="M595.683 245.07C603.191 245.07 610.685 245.083 620.169 246.113C633.893 249.16 650.747 243.08 661.22 253.895C663.155 261.018 660.547 272.711 664.98 280.548C669.852 290.691 677.003 299.2 685.403 306.818C669.441 294.644 653.836 282.058 640.138 267.455C624.149 250.024 592.225 269.143 565.201 265.3C575.137 257.024 578.898 250.011 582.508 242.736C584.759 236.67 587.202 230.864 590.303 226.061C608.736 202.097 602.862 175.91 590.811 150.3C590.811 150.382 590.811 150.464 590.811 150.547C594.009 159.139 596.658 167.319 598.195 175.348C601.242 191.392 599.581 207.079 589.535 221.326C583.359 228.394 578.829 238.331 573.861 248.171C570.169 253.812 566.422 259.385 558.846 266.206C551.435 272.561 543.447 278.641 537.243 285.599C570.951 283.033 606.43 258.685 639.26 275.278C643.693 277.899 646.369 283.993 650.802 287.479C680.091 309.288 710.272 324.989 736.294 350.627C744.365 356.886 751.35 358.601 758.35 359.137C765.144 358.917 771.965 357.503 778.608 354.69C793.692 347.745 799.881 330.328 793.664 316.398C782.547 290.375 774.436 256.393 785.059 230.48C787.323 225.141 790.48 219.967 794.241 215.506C798.962 210.758 805.962 206.434 816.036 203.031C836.156 193.67 860.998 193.698 875.203 213.736C880.089 218.32 884.811 223.055 889.491 227.804C896.532 234.927 902.2 242.695 904.753 251.534C908.061 265.149 918.725 279.958 933.808 277.378C966.638 273.068 997.684 263.516 1030.1 267.688L1033.48 260.085C1001.24 257.449 971.071 260.016 938.241 266.947C919.617 270.406 907.182 253.854 908.829 237.274C904.259 232.278 899.826 227.049 895.351 221.943C890.877 216.824 886.526 211.76 882.285 207.052C870.949 178.765 844.171 183.418 820.194 193.149C812.44 196.031 805.234 199.064 799.731 200.601C783.81 208.424 778.498 227.571 773.173 242.599C771.636 251.836 771.869 261.526 774.093 271.106C778.539 292.009 791.866 309.439 790.109 331.207C789.231 341.651 782.808 348.829 774.161 352.851C765.515 356.872 754.644 357.723 744.68 354.511C734.181 344.465 722.83 335.31 711.247 326.403C720.909 332.909 730.818 339.222 739.973 346.043C749.223 349.667 758.638 349.749 768.85 345.988C796.34 335.571 775.918 301.589 767.916 281.55C764.142 272.19 762.138 262.61 761.795 253.14C768.754 224.949 776.714 185.778 810.916 182.306C816.475 181.441 823.049 179.067 829.555 176.651C836.307 173.783 843.019 170.846 849.456 167.593C867.188 159.784 890.273 167.648 893.389 188.167C895.598 195.468 899.812 202.248 903.82 209.316C908.61 216.042 912.933 223.179 916.941 230.37C920.495 235.6 919.617 243.436 925.821 245.179C954.217 251.314 981.708 240.897 1009.35 244.232C1029.95 245.44 1039.35 245.632 1039.35 245.632L1039.35 235.105C1039.35 235.105 1034.62 235.105 1025.79 235.092C1021.39 235.092 1015.83 235.037 1009.2 234.996C981.708 233.925 953.311 235.627 926.232 235.627C925.011 228.559 920.468 223.426 916.076 215.287C913.551 210.099 910.559 205.076 907.155 200.313C904.396 195.194 902.022 189.868 900.553 184.131C897.342 158.919 869.837 148.447 847.658 158.864C841.454 161.897 835.182 164.834 828.937 167.785C822.939 170.214 817.106 172.163 811.987 172.891C778.457 176.198 767.834 212.761 759.64 239.772C756.662 249.544 756.607 257.861 758.227 265.547C761.452 280.891 767.903 295.92 775.012 310.304C779.006 318.58 778.8 327.94 775.149 335.228C771.499 342.516 764.403 347.731 754.644 347.718C721.815 335.489 689.85 312.802 670.305 283.184C666.751 277.954 670.305 268.374 668.48 262.322C669.386 253.579 669.386 242.256 660.506 240.499C639.781 237.082 618.22 238.605 598.264 233.843C596.74 236.327 595.011 238.811 593.076 241.282C592.184 242.146 593.076 245.632 595.683 245.083L595.683 245.07Z" fill="white"/>
<path d="M564.555 69.6802C557.446 48.7773 541.457 34.8191 528.144 18.2532C576.963 44.4402 589.425 105.406 576.963 154.705C576.029 161.252 575.686 166.509 575.357 171.367C575.439 179.904 574.163 188.263 571.418 195.866C569.565 200.217 567.781 206.174 565.571 212.487C539.892 281.248 452.959 298.555 388.178 275.841C343.805 260.551 310.509 225.924 293.243 183.569C291.047 175.183 291.898 166.591 294.863 157.835C289.579 132.91 254.086 125.911 231.907 132.842C223.919 135.45 231.028 144.165 232.909 150.615C235.091 156.956 236.807 164.203 230.15 170.283C208.877 190.28 177.831 198.954 163.653 226.802C146.827 259 163.708 291.24 181.468 319.994C186.793 328.709 183.033 337.191 175.608 343.71C168.182 350.229 153.318 344.287 140.705 338.728C110.36 323.768 47.3902 327.24 39.1416 293.875C37.7966 287.232 38.6475 279.107 45.1394 269.267C50.9999 264.971 58.0956 260.634 59.8661 252.797C60.7445 248.446 59.8661 244.095 55.4193 243.217C36.7809 238.839 11.939 237.068 -1.36036 249.242C17.278 251.013 36.7947 247.54 55.4193 250.175C53.6488 252.783 56.3114 256.269 53.0449 258.808C46.5118 266.357 37.028 273.439 35.3673 280.727C33.7066 288.015 33.2674 294.987 38.6063 301.52C64.3541 332.895 110.497 324.248 144.384 341.638C157.408 347.965 171.065 351.959 178.49 345.22C185.915 338.481 189.895 329.56 185.901 319.98C175.237 296.456 153.922 275.539 161.004 246.799C170.735 208.493 209.755 191.131 243.463 174.62C248.788 172.012 248.692 164.258 251.355 158.096C254.072 142.422 273.589 139.828 286.024 145.071C290.457 147.692 292.241 153.786 292.529 158.974C289.359 166.619 287.904 174.14 289.386 181.579C307.874 234.323 354.003 276.102 413.02 284.542C467.15 293.313 523.916 279.45 557.597 233.335C563.801 224.194 567.781 214.628 569.991 204.719C576.194 193.945 578.157 182.8 577.416 171.656C577.045 166.083 576.427 159.99 578.376 149.696C591.195 94.9064 570.732 20.8609 506.843 9.46934C542.362 38.2503 585.87 84.4481 557.515 132.307C554.852 112.364 548.47 91.8595 538.451 73.9349C548.95 98.9278 547.482 128.477 548.662 155.803C577.045 140.157 573.463 97.4867 564.569 69.6115L564.555 69.6802Z" fill="white"/>
<path d="M549.431 20.5041C574.19 44.399 585.294 75.4721 589.988 107.767C586.447 74.9368 574.561 43.3148 549.431 20.5041Z" fill="white"/>
<path d="M433.195 12.0632C429.654 15.5356 424.329 25.9802 432.317 25.9939C458.627 23.4411 484.938 22.6038 508.696 38.5933C489.316 23.7018 464.406 16.6061 434.088 23.3724C427.884 25.1018 431.425 15.5356 434.088 12.0494C440.291 5.95563 447.387 -0.124459 456.253 -2.73218C481.973 -11.4063 509.478 -7.02806 532.563 7.80848C538.767 11.6377 544.353 15.8924 549.431 20.4902C545.121 16.3316 540.414 12.3651 535.226 8.67315C504.153 -13.1356 458.902 -16.6766 433.195 12.0358L433.195 12.0632Z" fill="white"/>
<path d="M588.78 112.104C588.807 114.217 588.78 116.331 588.697 118.444C588.629 128.093 589.013 135.546 588.176 144.933C589.068 146.718 589.946 148.502 590.797 150.3C590.88 137.851 590.331 124.936 588.793 112.104L588.78 112.104Z" fill="white"/>
<path d="M533.125 9.64747C536.941 12.2689 540.619 15.1649 544.105 18.2804C552.285 25.3487 559.504 33.2954 565.612 41.9145C557.445 29.3426 546.836 18.2804 533.111 9.64747L533.125 9.64747Z" fill="white"/>
<path d="M588.78 112.104C588.492 86.7812 580.188 62.4471 565.626 41.9147C578.994 62.4882 585.788 87.1655 588.78 112.104Z" fill="white"/>
<path d="M436.75 18.157C436.75 19.9 440.305 20.7784 442.075 19.9C489.975 9.5103 529.928 42.642 551.256 80.1108C544.133 47.8849 518.385 25.2115 488.204 9.4966C487.312 8.61821 485.542 6.01048 486.434 6.01048C518.371 -2.66362 547.66 22.6312 564.542 47.8986C584.978 79.2736 586.776 114.972 580.215 148.913C579.117 158.905 579.996 165.411 580.586 171.408C581.753 183.418 580.092 195.441 574.067 206.928C571.171 211.828 568.673 218.347 565.571 224.661C539.878 275.141 478.679 294.218 424.548 292.42C356.226 290.595 303.839 239.154 278.187 180.975C273.63 179.918 270.075 186.876 265.642 187.741C220.392 190.294 164.518 217.222 168.114 267.743C169.898 286.903 185.887 299.983 192.105 316.535C196.112 327.858 192.118 338.302 184.364 346.235C180.48 350.202 175.553 353.111 170.09 354.8C151.205 346.62 131.908 340.347 112.309 334.734C129.149 339.977 145.111 346.084 161.402 354.072C169.335 357.613 175.594 356.172 180.96 353.084C186.148 349.282 190.568 344.382 193.903 338.302C198.336 330.465 199.214 320.899 194.767 312.184C181.441 290.403 163.681 267.743 176.074 242.503C189.662 215.232 219.019 198.048 248.926 196.346C256.406 195.921 263.886 196.978 271.201 199.558C309.164 247.897 357.105 299.324 423.656 298.541C474.232 297.951 531.767 277.282 560.356 236.135C565.118 229.272 569.236 222.067 572.571 214.669C580.874 202.934 583.839 190.362 583.4 177.639C583.18 171.271 582.233 164.724 580.874 157.876C581.423 154.568 581.904 151.26 582.329 147.939C583.043 149.558 583.784 151.192 584.511 152.839C584.017 146.704 584.347 140.486 585.005 134.42C584.484 137.385 583.784 140.596 582.768 144.302C586.941 107.478 582.919 70.1603 559.189 38.3462C547.646 23.5234 532.549 13.0651 514.803 6.07911C502.382 1.71464 474.864 -4.4204 475.77 7.76726C475.77 15.6041 494.408 19.104 505.058 26.0899C485.528 14.7532 462.47 22.5489 442.94 12.0769C449.363 4.04784 457.543 -0.83818 466.519 -3.36357C453.124 -0.728378 437.505 3.7459 436.736 18.1707L436.75 18.157Z" fill="white"/>
<path d="M479.324 -5.43618C494.339 -6.23222 510.329 -2.0187 523.683 4.33589C526.991 5.98287 530.12 7.7671 533.112 9.66113C517.438 -1.11286 499.157 -7.28902 479.311 -5.42244L479.324 -5.43618Z" fill="white"/>
<path d="M585.02 134.406C585.788 130.042 586.186 126.24 586.653 122.219C586.063 126.158 585.472 130.248 585.02 134.406Z" fill="white"/>
</g>
<defs>
<clipPath id="clip0_628_18874">
<rect width="719.03" height="1098" fill="white" transform="translate(-35 490.03) rotate(-90)"/>
</clipPath>
</defs>
</svg>
