<svg width="32" height="28" viewBox="0 0 32 28" fill="none" xmlns="http://www.w3.org/2000/svg">
<path id="Vector" d="M6 26V4.104C5.99986 3.63865 6.15429 3.18643 6.43904 2.81837C6.72378 2.45031 7.12272 2.18725 7.57319 2.07051C8.02366 1.95378 8.50015 1.98997 8.92781 2.17341C9.35548 2.35685 9.71011 2.67715 9.93599 3.084L22.064 24.916C22.2899 25.3228 22.6445 25.6431 23.0722 25.8266C23.4998 26.01 23.9763 26.0462 24.4268 25.9295C24.8773 25.8127 25.2762 25.5497 25.5609 25.1816C25.8457 24.8136 26.0001 24.3614 26 23.896V2M2 10H30M2 18H30" stroke="#00665A" stroke-width="3" stroke-linecap="square" stroke-linejoin="round"/>
</svg>
