<svg width="60" height="38" viewBox="0 0 60 38" fill="none" xmlns="http://www.w3.org/2000/svg">
<rect x="1" y="1" width="58" height="36" rx="18" fill="#00332D"/>
<rect x="1" y="1" width="58" height="36" rx="18" stroke="white" stroke-width="2"/>
<path d="M24.5837 25.5V13.6397C24.5836 13.3876 24.6672 13.1427 24.8215 12.9433C24.9757 12.7439 25.1918 12.6014 25.4358 12.5382C25.6798 12.475 25.9379 12.4946 26.1696 12.5939C26.4012 12.6933 26.5933 12.8668 26.7157 13.0872L33.285 24.9128C33.4073 25.1332 33.5994 25.3067 33.8311 25.4061C34.0627 25.5054 34.3208 25.525 34.5648 25.4618C34.8088 25.3986 35.0249 25.2561 35.1792 25.0567C35.3334 24.8573 35.4171 24.6124 35.417 24.3603V12.5M22.417 16.8333H37.5836M22.417 21.1667H37.5836" stroke="white" stroke-width="1.8" stroke-linecap="square" stroke-linejoin="round"/>
</svg>
