<svg width="20" height="20" viewBox="0 0 20 20" fill="none" xmlns="http://www.w3.org/2000/svg">
<path d="M10 20C15.5228 20 20 15.5228 20 10C20 4.47715 15.5228 0 10 0C4.47715 0 0 4.47715 0 10C0 15.5228 4.47715 20 10 20Z" fill="#EF0027"/>
<path d="M13.7075 6.19516L4.6875 4.53516L9.43438 16.4802L16.0487 8.42141L13.7075 6.19516ZM13.5625 6.92641L14.9425 8.23828L11.1688 8.92141L13.5625 6.92641ZM10.3488 8.78453L6.37125 5.48578L12.8725 6.68203L10.3488 8.78453ZM10.0656 9.36828L9.41688 14.7308L5.92 5.92891L10.0656 9.36828ZM10.6656 9.65266L14.845 8.89641L10.0513 14.7358L10.6656 9.65266Z" fill="white"/>
</svg>
